<svg width="398" height="424" viewBox="0 0 398 424" fill="none" xmlns="http://www.w3.org/2000/svg">
<path d="M171.64 414.97C169.91 414.77 170.76 417.82 164.86 390.58C162.69 380.43 160.73 371.76 160.53 371.32C160.29 370.72 159.05 370.16 155.84 369.19C146.49 366.34 134.7 361.17 125.91 356.11C122.06 353.94 121.06 353.5 120.41 353.82C119.65 354.22 100.23 366.58 89.5601 373.44C84.8701 376.49 83.5801 377.13 82.3001 377.13C80.7801 377.13 80.3701 376.73 62.3601 358.23C48.0801 343.59 43.9001 339.09 43.8201 338.21C43.7401 337.37 44.4601 335.8 46.7901 332.15C49.5601 327.7 58.2201 313.49 64.8801 302.46L67.4501 298.21L65.5601 294.84C60.4601 285.65 55.8501 273.58 52.6801 261.18L52.3201 259.78L29.9701 254.16L7.62012 248.54V221.06V193.54L29.4101 188.2C41.3701 185.27 51.4001 182.7 51.6801 182.58C51.9601 182.42 53.3701 178.85 54.7301 174.68C56.1301 170.51 57.4201 166.78 57.5801 166.37C57.7801 165.89 58.3401 165.69 59.5501 165.69C61.1501 165.69 62.7201 166.29 81.7801 174.04C84.1901 175.04 84.2701 175.08 84.2701 176.53C84.2701 177.33 83.9101 179.06 83.4701 180.38C80.8201 187.96 78.4501 198.19 77.2101 207.02C76.2101 214.04 76.2101 229.05 77.2101 235.71C81.5801 265.48 93.4601 289.55 113.76 309.97C140.32 336.69 177.03 349.81 212.26 345.2C236.65 342.03 259.44 331.32 278.46 314.07C294.91 299.19 308.15 278.16 314.41 257.14C317.34 247.23 319.3 235.92 319.71 226.37L319.99 220.47L354.21 220.35L388.39 220.27V234.43V248.59L366.24 254.17C354.04 257.22 344.01 259.75 343.97 259.79C343.93 259.79 343.33 261.92 342.69 264.4C340.32 273.51 337.15 281.81 332.18 291.96L328.97 298.42L331.74 302.99C333.26 305.48 337.04 311.58 340.05 316.55C352.41 336.69 352.33 336.53 352.21 338.22C352.09 339.66 350.93 340.95 333.83 358.36C312.61 379.95 314.61 378.58 309.44 375.21C307.71 374.13 299.45 368.79 291.02 363.33C282.59 357.91 275.57 353.46 275.45 353.46C275.29 353.46 272.76 354.82 269.79 356.51C260.44 361.77 251.37 365.7 241.54 368.75C238.57 369.67 236.08 370.48 236 370.52C235.88 370.6 231.79 388.61 229.54 398.89C227.69 407.36 225.97 414.5 225.77 414.7C225.57 414.9 173.37 415.18 171.65 414.98L171.64 414.97Z" fill="black"/>
<path d="M188.57 333.37C168.63 331.64 149.97 324.42 132.72 311.74C127.66 308.05 117.75 298.5 113.38 293.08C96.1303 271.86 87.5003 245.86 88.3803 217.85C88.8603 203.21 91.3903 190.69 96.4403 178.01C97.4003 175.64 98.0403 173.64 97.9203 173.56C97.8003 173.48 95.7103 172.84 93.2703 172.12C90.8603 171.4 88.5403 170.64 88.1303 170.43C87.4903 170.11 87.4503 168.58 87.5303 144.71L87.6503 119.35L88.7703 119.23C89.4103 119.15 92.5803 120.11 96.3903 121.52C99.9603 122.84 116.09 128.74 132.18 134.6C148.31 140.5 166.6 147.2 172.9 149.53C190.71 156.11 197.45 158.48 198.18 158.48C198.98 158.48 205.2 156.23 242.71 142.43C253.62 138.38 267.91 133.16 274.41 130.79C280.91 128.38 290.46 124.89 295.59 123.01C302.13 120.6 305.5 119.56 306.74 119.56H308.51V145.2V170.84L307.23 171.12C304.94 171.6 298.68 173.41 298.4 173.69C298.24 173.81 298.64 175.17 299.28 176.66C299.92 178.14 301.25 181.88 302.25 184.88C311.88 214.85 309.23 247.67 295.03 274.79C280.51 302.47 253.46 323.62 223.37 330.8C213.26 333.21 198.82 334.29 188.54 333.37H188.57ZM205.86 312.55C235.95 309.5 264.2 289.6 278.04 261.76C284.46 248.8 287.67 235.24 287.67 221.08C287.67 211.17 286.23 202.34 283.02 192.11C281.9 188.62 278.77 180.52 278.25 179.83C278.09 179.63 270.27 182.68 265.01 184.97C259.59 187.34 254.58 189.9 249.56 192.91C244.02 196.2 244.38 195.52 246.11 199.53C251.17 211.33 251.73 227.09 247.51 239.93C246.31 243.54 243.22 249.6 240.81 252.97C238.28 256.58 232.5 262.48 228.89 265.13C223.11 269.38 215.13 272.83 207.83 274.2C202.9 275.16 192.95 275.04 187.65 274.04C177.42 272.07 169.27 267.62 161.45 259.84C153.35 251.74 148.77 243.19 146.61 232.08C145.65 227.11 145.61 216.19 146.61 211.26C147.57 206.29 148.7 202.55 150.3 199.06C151.06 197.42 151.66 196.05 151.66 195.97C151.66 195.89 149.53 194.61 146.97 193.08C138.87 188.31 130.64 184.41 121.05 180.8L118.32 179.76L116.68 183.29C111.14 195.29 108.01 210.77 108.46 223.89C109.26 246.4 118.49 268.1 134.18 284.39C146.62 297.31 161.74 306.22 178.15 310.31C187.78 312.72 196.89 313.44 205.87 312.56L205.86 312.55Z" fill="black"/>
<path d="M341.47 207.99C335.05 206.63 329.67 202.73 327.19 197.64C325.02 193.27 324.46 189.9 324.7 182.55C324.9 175.65 325.5 172.36 328.27 163.21L329.91 157.75L328.43 156.02C327.63 155.06 326.46 153.29 325.86 152.05C324.9 150.04 324.78 149.4 324.78 145.43C324.78 141.5 324.9 140.78 325.82 138.77C327.06 136.12 329.19 133.63 331.16 132.59L332.52 131.83L332.8 127.42C333.08 122.61 332.92 98.89 332.6 98.57C332.4 98.37 328.03 97.45 284.25 88.26C272.78 85.85 256.53 82.44 248.14 80.68C239.75 78.91 229.12 76.71 224.51 75.75L216.12 74.02L215.2 72.42C213.51 69.37 209.7 67.24 203.61 65.92C199.64 65.08 196.15 65.16 191.97 66.2C187.24 67.36 184.23 68.93 182.22 71.22C179.41 74.39 179.61 76.92 182.78 79.85C187.75 84.42 197.58 86.15 205.61 83.86C210.18 82.54 212.35 82.46 216.88 83.42C223.58 84.78 240.79 88.44 260.77 92.69C271.24 94.9 284.52 97.71 290.26 98.91C296 100.11 303.26 101.64 306.43 102.32C309.56 102.96 312.61 103.52 313.13 103.52C314.01 103.52 314.13 103.68 314.13 105.04V106.52L303.98 110.21C298.44 112.22 288.17 115.99 281.23 118.56C274.29 121.17 267.15 123.78 265.38 124.38C263.61 125.02 256.31 127.67 249.13 130.32C234.57 135.7 219.12 141.35 207.44 145.61C202.3 147.5 199.09 148.46 197.93 148.46C197.01 148.46 194.72 147.9 192.87 147.22C191.02 146.54 182.88 143.53 174.7 140.56C166.56 137.59 155.52 133.54 150.23 131.61C144.93 129.68 137.07 126.8 132.78 125.19C128.49 123.63 117.37 119.53 108.11 116.16C98.8401 112.79 86.0401 108.1 79.6201 105.73C73.2401 103.36 65.8201 100.67 63.1701 99.71C60.5201 98.75 49.1701 94.61 37.8901 90.48C26.6601 86.35 15.2201 82.22 12.5301 81.33L7.6001 79.64V78.32C7.6001 77.6 7.8401 76.96 8.1201 76.84C9.4801 76.4 41.1401 64.88 49.5201 61.79C69.8201 54.29 111.67 38.92 151.23 24.48C165.23 19.34 181.12 13.57 186.46 11.6C193.76 8.91003 196.73 8.03003 198.22 8.03003C199.58 8.03003 201.99 8.71003 206.28 10.28C209.65 11.52 220 15.3 229.27 18.67C252.7 27.22 282.23 38.01 289.65 40.74C293.06 42.02 304.62 46.24 315.33 50.17C326.04 54.1 341.29 59.68 349.23 62.61C357.17 65.54 369.17 69.95 375.91 72.44L388.15 76.89L388.27 78.33C388.39 79.65 388.31 79.81 387.15 80.06C386.03 80.3 373.67 84.79 352.77 92.5L345.43 95.23V113.32V131.41L347.44 132.49C349.69 133.73 351.89 136.5 352.86 139.19C353.26 140.39 353.46 142.48 353.46 145.41C353.46 149.5 353.38 150.06 352.3 152.35C351.66 153.71 350.37 155.52 349.45 156.4L347.81 158L348.25 163.14C349.37 177.22 355.35 191.02 364.38 200.45C366.91 203.06 367.51 203.94 367.51 204.94C367.51 206.14 367.47 206.18 364.02 206.99C362.05 207.43 359.41 207.99 358.12 208.19C354.75 208.79 344.56 208.67 341.47 207.99Z" fill="black"/>
</svg>
