<svg width="1350" height="320" viewBox="0 0 1350 320" fill="none" xmlns="http://www.w3.org/2000/svg">
<rect width="590" height="320" rx="50" fill="#1F3A2E"/>
<path d="M95 237L139 93H179.6L223.6 237H195.6L156.4 110H161.6L123 237H95ZM121.4 207V181.6H197.4V207H121.4ZM349.323 237H321.723V141L259.123 237H231.523V93H259.123V189L321.723 93H349.323V237ZM429.027 240C414.627 240 402.193 236.867 391.727 230.6C381.327 224.333 373.293 215.567 367.627 204.3C362.027 193.033 359.227 179.933 359.227 165C359.227 150.067 362.027 136.967 367.627 125.7C373.293 114.433 381.327 105.667 391.727 99.4C402.193 93.1333 414.627 90 429.027 90C445.56 90 459.427 94.1 470.627 102.3C481.893 110.5 489.827 121.6 494.427 135.6L467.027 143.2C464.36 134.467 459.86 127.7 453.527 122.9C447.193 118.033 439.027 115.6 429.027 115.6C419.893 115.6 412.26 117.633 406.127 121.7C400.06 125.767 395.493 131.5 392.427 138.9C389.36 146.3 387.827 155 387.827 165C387.827 175 389.36 183.7 392.427 191.1C395.493 198.5 400.06 204.233 406.127 208.3C412.26 212.367 419.893 214.4 429.027 214.4C439.027 214.4 447.193 211.967 453.527 207.1C459.86 202.233 464.36 195.467 467.027 186.8L494.427 194.4C489.827 208.4 481.893 219.5 470.627 227.7C459.427 235.9 445.56 240 429.027 240Z" fill="#F4EFE5"/>
<path d="M778.85 220.25C768.05 220.25 758.725 217.9 750.875 213.2C743.075 208.5 737.05 201.925 732.8 193.475C728.6 185.025 726.5 175.2 726.5 164C726.5 152.8 728.6 142.975 732.8 134.525C737.05 126.075 743.075 119.5 750.875 114.8C758.725 110.1 768.05 107.75 778.85 107.75C791.25 107.75 801.65 110.825 810.05 116.975C818.5 123.125 824.45 131.45 827.9 141.95L807.35 147.65C805.35 141.1 801.975 136.025 797.225 132.425C792.475 128.775 786.35 126.95 778.85 126.95C772 126.95 766.275 128.475 761.675 131.525C757.125 134.575 753.7 138.875 751.4 144.425C749.1 149.975 747.95 156.5 747.95 164C747.95 171.5 749.1 178.025 751.4 183.575C753.7 189.125 757.125 193.425 761.675 196.475C766.275 199.525 772 201.05 778.85 201.05C786.35 201.05 792.475 199.225 797.225 195.575C801.975 191.925 805.35 186.85 807.35 180.35L827.9 186.05C824.45 196.55 818.5 204.875 810.05 211.025C801.65 217.175 791.25 220.25 778.85 220.25ZM862.714 218V155H836.164V137H909.664V155H883.114V218H862.714ZM929.84 254L945.44 211.1L945.74 223.7L910.49 137H931.64L955.34 198.35H950.54L974.09 137H994.49L948.74 254H929.84ZM994.607 236V202.25C998.907 202.25 1001.96 200.75 1003.76 197.75C1005.61 194.75 1007.06 189.4 1008.11 181.7C1008.71 177.25 1009.21 172.575 1009.61 167.675C1010.06 162.775 1010.43 157.75 1010.73 152.6C1011.03 147.45 1011.31 142.25 1011.56 137H1074.11V202.25H1082.36V236H1063.16V218H1013.81V236H994.607ZM1020.71 202.25H1053.71V152.75H1029.26C1029.11 155.5 1028.93 158.25 1028.73 161C1028.58 163.75 1028.38 166.475 1028.13 169.175C1027.93 171.875 1027.73 174.5 1027.53 177.05C1027.33 179.55 1027.11 181.95 1026.86 184.25C1026.41 188.65 1025.78 192.225 1024.98 194.975C1024.18 197.725 1022.76 200.15 1020.71 202.25ZM1133.44 220.25C1125.14 220.25 1117.81 218.475 1111.46 214.925C1105.16 211.325 1100.21 206.4 1096.61 200.15C1093.06 193.85 1091.29 186.65 1091.29 178.55C1091.29 169.7 1093.04 162 1096.54 155.45C1100.04 148.9 1104.86 143.825 1111.01 140.225C1117.16 136.575 1124.24 134.75 1132.24 134.75C1140.74 134.75 1147.96 136.75 1153.91 140.75C1159.86 144.75 1164.26 150.375 1167.11 157.625C1169.96 164.875 1170.96 173.4 1170.11 183.2H1149.94V175.7C1149.94 167.45 1148.61 161.525 1145.96 157.925C1143.36 154.275 1139.09 152.45 1133.14 152.45C1126.19 152.45 1121.06 154.575 1117.76 158.825C1114.51 163.025 1112.89 169.25 1112.89 177.5C1112.89 185.05 1114.51 190.9 1117.76 195.05C1121.06 199.15 1125.89 201.2 1132.24 201.2C1136.24 201.2 1139.66 200.325 1142.51 198.575C1145.36 196.825 1147.54 194.3 1149.04 191L1169.44 196.85C1166.39 204.25 1161.56 210 1154.96 214.1C1148.41 218.2 1141.24 220.25 1133.44 220.25ZM1106.59 183.2V168.05H1160.29V183.2H1106.59ZM1185.4 218V137H1205.8V167.9H1239.1V137H1259.5V218H1239.1V186.95H1205.8V218H1185.4ZM1298.77 218V155H1272.22V137H1345.72V155H1319.17V218H1298.77Z" fill="#F4EFE5"/>
<rect x="651" y="20" width="10" height="280" rx="5" fill="#1F3A2E"/>
</svg>
